# xmcd
#
# Track frame offsets: 
#        150
#        13483
#        34203
#        54859
#        72543
#        90240
#        106359
#        120079
#
# Disc length: 2039 seconds
#
# Revision: 0
# Processed by: cddbd v1.5.2PL0 Copyright (c) Steve Scherf et al.
# Submitted via: ExactAudioCopy v0.99pb5
#
DISCID=5f07f508
DTITLE=Birds Of Tokyo - The Broken Strings Tour [CD1]
DYEAR=2010
DGENRE=Rock
TTITLE0=Overture
TTITLE1=Armour For Liars
TTITLE2=Like Rain
TTITLE3=Russian Roulette
TTITLE4=Black Sheets
TTITLE5=Rose
TTITLE6=Wild Eyed Boy
TTITLE7=The Bakers Son
EXTD=
EXTT0=
EXTT1=
EXTT2=
EXTT3=
EXTT4=
EXTT5=
EXTT6=
EXTT7=
PLAYORDER=
